<svg width="40" height="40" viewBox="0 0 40 40" fill="none" xmlns="http://www.w3.org/2000/svg">
<path d="M20 0C8.98758 0 0 8.9882 0 20C0 31.0123 8.9882 40 20 40C31.0123 40 40 31.0118 40 20C40 8.98758 31.0118 0 20 0ZM20 37.6562C10.2643 37.6562 2.34375 29.7357 2.34375 20C2.34375 10.2643 10.2643 2.34375 20 2.34375C29.7357 2.34375 37.6562 10.2643 37.6562 20C37.6562 29.7357 29.7357 37.6562 20 37.6562Z" fill="black"/>
<path d="M20 4.76562C11.5998 4.76562 4.76562 11.5998 4.76562 20C4.76562 28.4002 11.5998 35.2344 20 35.2344C28.4002 35.2344 35.2344 28.4002 35.2344 20C35.2344 11.5998 28.4002 4.76562 20 4.76562ZM20 32.8906C12.8921 32.8906 7.10938 27.1079 7.10938 20C7.10938 12.8921 12.8921 7.10938 20 7.10938C27.1079 7.10938 32.8906 12.8921 32.8906 20C32.8906 27.1079 27.1079 32.8906 20 32.8906Z" fill="black"/>
<path d="M25.0648 19.0923C25.5663 18.3463 25.8594 17.449 25.8594 16.4844C25.8594 13.8997 23.7566 11.7969 21.1719 11.7969V10.625C21.1719 9.97781 20.6472 9.45312 20 9.45312C19.3528 9.45312 18.8281 9.97781 18.8281 10.625V11.7969C17.727 11.7969 16.4102 11.7969 15.3125 11.7969C14.6653 11.7969 14.1406 12.3216 14.1406 12.9688C14.1406 13.6159 14.6653 14.1406 15.3125 14.1406H16.4844C16.4844 14.9319 16.4844 25.068 16.4844 25.8594H15.3125C14.6653 25.8594 14.1406 26.3841 14.1406 27.0312C14.1406 27.6784 14.6653 28.2031 15.3125 28.2031C16.4102 28.2031 17.727 28.2031 18.8281 28.2031V29.375C18.8281 30.0222 19.3528 30.5469 20 30.5469C20.6472 30.5469 21.1719 30.0222 21.1719 29.375V28.2031H23.5156C26.1003 28.2031 28.2031 26.1003 28.2031 23.5156C28.2031 21.4738 26.8903 19.7337 25.0648 19.0923ZM18.8281 14.1406H21.1719C22.4642 14.1406 23.5156 15.192 23.5156 16.4844C23.5156 17.7767 22.4642 18.8281 21.1719 18.8281H18.8281V14.1406ZM23.5156 25.8594H18.8281V21.1719C19.3952 21.1719 22.9448 21.1719 23.5156 21.1719C24.808 21.1719 25.8594 22.2233 25.8594 23.5156C25.8594 24.808 24.808 25.8594 23.5156 25.8594Z" fill="black"/>
</svg>
