<svg xmlns="http://www.w3.org/2000/svg" width="119.906" height="45.656" viewBox="0 0 119.906 45.656"><defs><style>.a{fill:#404041;}</style></defs><g transform="translate(0 -0.125)"><path class="a" d="M29.531,37.156a1.186,1.186,0,0,1-1.312-1.125H25.406a4.125,4.125,0,0,0,8.25,0H30.75A1.377,1.377,0,0,1,29.531,37.156Z"/><path class="a" d="M99.281,37.156a1.186,1.186,0,0,1-1.312-1.125H95.156a4.125,4.125,0,1,0,8.25,0H100.5A1.224,1.224,0,0,1,99.281,37.156Z"/><path class="a" d="M2.813,34.438l.094-.187Z"/><path class="a" d="M119.906,22.906h-2.812l-2.813-2.812,2.813-2.812-2.813-2.812H19.969L28.5,3.031h5.719l-2.813,8.531h5.719l2.813-8.531h17.25v8.531H60V3.031H74.25l8.531,8.625H88.5L74.25.125H25.688L17.156,2.938,8.531,14.563,2.813,17.375v5.719H0v5.719l2.813,2.813H5.625L2.906,34.25l2.813,2.813H16.875c0-.375-.094-.844-.094-1.219a12.665,12.665,0,0,1,25.313,0A5.343,5.343,0,0,1,42,37.063H86.531c0-.375-.094-.844-.094-1.219a12.665,12.665,0,0,1,25.313,0c0,.469-.094.844-.094,1.219h8.063V34.25h-2.813l2.813-2.812V22.906Zm-2.718,7.5-2.626,2.625a15.525,15.525,0,0,0-30.656,1.406h-39a15.509,15.509,0,0,0-30.844,0H6.844l5.719-5.719H4.031L2.813,27.5V25.813H5.719V18.969l4.687-2.344,8.438-11.25L24.563,3.5,14.25,17.375h98.812l-2.812,2.813,5.719,5.719h1.219Z"/><path class="a" d="M109.031,36.031a9.884,9.884,0,0,0-9.75-9.844,9.844,9.844,0,0,0-6.937,16.781H36.375a9.811,9.811,0,1,0-13.875,0H5.719v2.812H114.281V42.969h-8.062A9.862,9.862,0,0,0,109.031,36.031ZM29.438,42.969a6.938,6.938,0,1,1-.094-13.875h.094a6.938,6.938,0,0,1,0,13.875Zm69.844,0a6.938,6.938,0,1,1-.094-13.875h.094a6.938,6.938,0,1,1,0,13.875Z"/></g></svg>