<svg xmlns="http://www.w3.org/2000/svg" width="120" height="39.844" viewBox="0 0 120 39.844"><defs><style>.a{fill:#404041;}</style></defs><g transform="translate(0 -0.031)"><path class="a" d="M97.5,30.875a1.125,1.125,0,0,1-2.25,0H92.625a3.843,3.843,0,1,0,7.687,0Z"/><path class="a" d="M23.531,32a1.14,1.14,0,0,1-1.125-1.125H19.688a3.844,3.844,0,1,0,7.688,0H24.75A1.3,1.3,0,0,1,23.531,32Z"/><path class="a" d="M120,21.313h-2.719l-2.625-2.625h2.625l-2.625-2.625-10.687-2.625h2.625l-2.625-2.625H90.656l-2.625,2.625H53.344L50.625,5.375H48l2.625,7.969H48L29.344,10.625V8L40.031,2.656h24l13.313,7.969h7.969L64.031.031H37.313L24,2.656,16.031,8H5.344L7.969,5.375H0V8l2.625,2.625H7.969L2.625,13.25v5.344H5.25L2.625,21.219H0v5.344l2.625,5.344,5.344,2.719h4.312a11.99,11.99,0,0,1,0-7.687,11.8,11.8,0,0,1,22.313,7.688H85.031a11.99,11.99,0,0,1,0-7.687,11.8,11.8,0,0,1,22.313,7.688h9.844l2.624-2.719-2.624-2.625,2.624-2.625V21.313Zm-2.625,4.313-3.75,3.75L116.25,32h-5.438V30.875a14.484,14.484,0,1,0-28.968,0V32H38.063V30.875a14.484,14.484,0,1,0-28.969,0V32H8.625L4.688,30.031,2.625,26.094V24.031H3.75l8.063-7.969H5.344V15.031l8.625-4.312h2.812l8.25-5.437,6.656-1.312L26.719,6.5v6.656l21.094,2.813h41.25l2.719-2.625h9.563l-.282,1.969,8.719,2.156,6.469,6.469h1.125Z"/><path class="a" d="M105.469,30.781a9.2,9.2,0,0,0-9.188-9.187,8.854,8.854,0,0,0-6.469,2.719,9.167,9.167,0,0,0,0,12.938H30a9.148,9.148,0,1,0-12.937,0H2.625v2.625H111.938V37.25H102.75A8.855,8.855,0,0,0,105.469,30.781ZM23.531,37.344A6.469,6.469,0,1,1,30,30.875,6.482,6.482,0,0,1,23.531,37.344Zm72.75,0a6.469,6.469,0,1,1,6.469-6.469A6.364,6.364,0,0,1,96.281,37.344Z"/></g></svg>