<svg xmlns="http://www.w3.org/2000/svg" width="119.906" height="43.5" viewBox="0 0 119.906 43.5"><defs><style>.a{fill:#404041;}</style></defs><path class="a" d="M112.688,41.313V43.75H2.438V41.313H20.344A10.449,10.449,0,1,1,35.063,40a8.687,8.687,0,0,1-1.312,1.313H90.938A10.449,10.449,0,1,1,105.656,40a8.721,8.721,0,0,1-1.312,1.313ZM92.156,33.344a5.541,5.541,0,0,0,5.531,5.531,5.6,5.6,0,0,0,5.532-5.531h-2.438a3.1,3.1,0,1,1-6.187.375v-.375Zm5.531-8.062a7.969,7.969,0,1,0,7.968,7.969A7.962,7.962,0,0,0,97.688,25.281ZM21.469,33.344a5.531,5.531,0,1,0,11.062,0H30.094a3.128,3.128,0,0,1-3.281,2.906,3.052,3.052,0,0,1-2.906-2.906Zm5.625-8.062a7.969,7.969,0,1,0,7.969,7.969,7.962,7.962,0,0,0-7.969-7.969ZM0,32.125V24.719H2.438V22.281H0V14.969H53.906l-2.437-2.437,2.437-9.844L56.344.25H75.938l2.438,2.438H63.656v9.844l2.438,2.438H78.375l2.438-2.437L75.938,5.125h2.438l7.313,7.313,26.907,2.438,2.437,2.438-2.437,2.438,2.437,2.438h2.438l2.437,7.313-2.437,2.531v2.438l-4.875,2.437h-2.625a12.936,12.936,0,0,0-24.844-7.219,13.481,13.481,0,0,0,0,7.219H39.469a12.936,12.936,0,0,0-24.844-7.219,13.481,13.481,0,0,0,0,7.219H9.75Zm2.438-1.5,7.875,3.938h1.313V33.344a15.375,15.375,0,0,1,30.75,0v1.219H82.313V33.344a15.375,15.375,0,1,1,30.749,0v.75l2.063-1.031V31.094l2.063-2.062-1.407-4.219h-1.687l-4.875-4.875,2.437-2.437-.094-.187L84.656,14.875l-1.312-1.312L79.5,17.406H65.063l-3.844-3.844V2.688H57.375L56.156,3.906l-1.969,7.781,5.625,5.625H2.438V19.75H4.875v7.313H2.438Z" transform="translate(0 -0.25)"/></svg>