<svg xmlns="http://www.w3.org/2000/svg" width="119.906" height="44.625" viewBox="0 0 119.906 44.625"><defs><style>.a{fill:#404041;}</style></defs><g transform="translate(0 -0.688)"><path class="a" d="M99.375,36.969a1.481,1.481,0,0,1-1.5-1.5H95.063a4.3,4.3,0,0,0,4.313,4.312,4.243,4.243,0,0,0,4.313-4.312h-2.813A1.481,1.481,0,0,1,99.375,36.969Z"/><path class="a" d="M19.406,36.969a1.481,1.481,0,0,1-1.5-1.5H15.188a4.313,4.313,0,0,0,8.625,0H21A1.626,1.626,0,0,1,19.406,36.969Z"/><path class="a" d="M106.406,42.312a9.878,9.878,0,1,0-13.968.188H26.344l.187-.187a9.878,9.878,0,1,0-13.969.188H2.813v2.813H114.375V42.5h-8.156A.2.2,0,0,0,106.406,42.312Zm-87,.188a7.031,7.031,0,1,1,7.031-7.031A7.022,7.022,0,0,1,19.406,42.5Zm79.969,0a7.031,7.031,0,1,1,7.031-7.031A7.022,7.022,0,0,1,99.375,42.5Z"/><path class="a" d="M117.188,25.813,114.375,23l2.813-2.812-13.969-5.625H50.25L44.625,11.75,41.813,6.125H39V11.75H19.5l2.813-2.812L36.281,3.5H64.219l19.5,8.344h5.625L64.219.688H11.156V6.313L2.813,14.656h8.344L8.344,17.469H5.625L0,20.281v8.344l2.813,8.344,4.313,1.406a12.62,12.62,0,1,1,24.563-5.812,12.306,12.306,0,0,1-.375,7.125H87.375a12.632,12.632,0,0,1,23.813-8.437,12.152,12.152,0,0,1,0,8.531h3.093l5.625-5.625V25.813ZM9.563,11.844l4.406-4.406V3.5H28.781L20.813,6.688l-5.156,5.156ZM117.188,33.031l-2.344,2.438A15.422,15.422,0,0,0,84,35.563a8.059,8.059,0,0,0,.094,1.5H34.781a8.06,8.06,0,0,0,.094-1.5,15.424,15.424,0,0,0-30.562-3l-1.5-4.406V21.969l3.469-1.781H9.563l5.625-5.625H41.906V12.406l.75,1.406,7.031,3.469H102.75l9.562,3.844-1.781,1.781,5.625,5.625h1.125v4.5Z"/></g></svg>