<svg xmlns="http://www.w3.org/2000/svg" width="119.906" height="45.938" viewBox="0 0 119.906 45.938"><defs><style>.a{fill:#404041;}</style></defs><g transform="translate(0 -37.031)"><path class="a" d="M18.469,75.938a1.04,1.04,0,0,1-1.031-1.031H15.094a3.375,3.375,0,0,0,6.75,0H19.5a1.04,1.04,0,0,1-1.031,1.031Z"/><path class="a" d="M101.344,75.938a1.04,1.04,0,0,1-1.031-1.031H97.969a3.375,3.375,0,0,0,6.75,0h-2.344a1.04,1.04,0,0,1-1.031,1.031Z"/><path class="a" d="M117.656,65.25l-2.344-2.344,2.25-2.437-2.343-2.344-9.375-4.687H96.469L72.938,51.094,70.594,48.75V44.063H89.438l9.375,7.031H103.5L87.094,39.375l-7.031-2.344H7.031L4.688,39.375,2.344,53.438H32.906l2.344,2.344H2.344v7.031H0V67.5l2.344,4.688,5.813,3.844A12.7,12.7,0,0,1,8.25,72.75a10.425,10.425,0,1,1,20.438,4.125H91.031a10.191,10.191,0,0,1,0-4.125,10.425,10.425,0,0,1,20.438,4.125h3.75l4.687-4.687V65.156h-2.25Zm0,6.094-3.281,3.281h-.187a12.75,12.75,0,0,0-25.5,0H31.313A12.786,12.786,0,0,0,6.094,71.906L4.219,70.594,2.344,66.938V65.156H4.688V58.125H40.969l-7.031-7.031H5.156L6.938,40.5l1.125-1.125H79.688l6.375,2.063.281.281H68.25v8.062l3.656,3.656,24.563,2.438h9L114,60.188l.469.469L112.125,63l4.687,4.688h.938v3.656Z"/><path class="a" d="M109.406,74.906a8.077,8.077,0,1,0-13.781,5.719H24.188a8.088,8.088,0,1,0-11.437,0H2.344v2.344H115.312V80.625h-8.25a8.086,8.086,0,0,0,2.344-5.719ZM18.563,80.625a5.719,5.719,0,1,1,5.719-5.719A5.8,5.8,0,0,1,18.563,80.625Zm82.782,0a5.719,5.719,0,1,1,5.718-5.719,5.719,5.719,0,0,1-5.718,5.719Z"/></g></svg>