<svg xmlns="http://www.w3.org/2000/svg" width="120.188" height="38.156" viewBox="0 0 120.188 38.156"><defs><style>.a{fill:#404041;}</style></defs><g transform="translate(0 -0.875)"><path class="a" d="M93.75,30.781a1.167,1.167,0,0,1-1.312-1.031H89.719a3.942,3.942,0,0,0,7.875,0H94.875A1.2,1.2,0,0,1,93.75,30.781Z"/><path class="a" d="M23.531,29.938a1.18,1.18,0,0,1-2.344-.281H18.469v.375a3.942,3.942,0,0,0,7.875-.375H23.625A.345.345,0,0,0,23.531,29.938Z"/><path class="a" d="M117.281,25.438,120,20l-2.719-2.719h-8.156l-2.719-2.719h8.156l-8.156-2.719L81.844,9.125,60,.875H38.156L19.031,6.313H35.438l5.438-2.719H60L79.125,11.75,68.156,22.719l5.438-8.156L32.719,9.125H8.156L2.719,11.844H13.594L8.156,14.563H2.719L0,20v5.438l5.438,8.156h5.531a12.125,12.125,0,1,1,22.969-7.781,12.277,12.277,0,0,1,0,7.781H82.313a12.125,12.125,0,1,1,22.968-7.781,12.273,12.273,0,0,1,0,7.781h12.188l2.719-2.719-2.719-2.719V25.438Zm-1.125,5.438h-7.687c0-.375.093-.75.093-1.219a14.812,14.812,0,1,0-29.624,0c0,.375.094.75.094,1.219H37.219V29.656a14.813,14.813,0,0,0-29.625,0v1.219H6.938L2.719,24.594V20.563l1.688-3.375H8.813l10.875-5.344H32.531l36.375,4.875L64.5,23.281l3.844,3.094L82.781,11.938,102,14.094,107.906,20h8.156l.563.563-2.156,4.313v4.5Z"/><path class="a" d="M102.938,29.844a9.465,9.465,0,0,0-9.282-9.469,9.631,9.631,0,0,0-6.562,2.719,9.336,9.336,0,0,0,0,13.219H28.969l.094-.094A9.347,9.347,0,0,0,15.75,23.094a9.253,9.253,0,0,0,.094,13.219H2.719v2.719H117.188V36.313H100.219A9.238,9.238,0,0,0,102.938,29.844ZM22.313,36.313a6.656,6.656,0,1,1,6.656-6.656A6.682,6.682,0,0,1,22.313,36.313Zm71.344,0a6.656,6.656,0,1,1,6.656-6.656A6.682,6.682,0,0,1,93.656,36.313Z"/></g></svg>