<svg xmlns="http://www.w3.org/2000/svg" width="120.094" height="39.938" viewBox="0 0 120.094 39.938"><defs><style>.a{fill:#404041;}</style></defs><g transform="translate(0 -0.031)"><path class="a" d="M24.375,32.469a1.126,1.126,0,0,1-1.125-1.031H20.719a3.563,3.563,0,1,0,7.125,0H25.313A.911.911,0,0,1,24.375,32.469Z"/><path class="a" d="M97.5,32.469a1.064,1.064,0,0,1-1.031-1.125H93.938a3.563,3.563,0,0,0,7.126,0H98.531A.966.966,0,0,1,97.5,32.469Z"/><path class="a" d="M120,22.531h-4.969L112.5,20h4.969L112.5,17.469,87.469,12.5l-15-10.031L67.5.031h-30l-19.969,7.5,15,2.531,10.031-7.5H52.5v7.5h2.531v-7.5H67.5l4.969,2.531L82.5,12.5h-45L7.5,9.969,2.531,12.5v2.531l2.531,2.531h4.969L0,20v7.5l2.531,4.969L10.031,35h3.938a11.561,11.561,0,0,1,0-7.125,11.088,11.088,0,0,1,21,7.125H87.188a11.561,11.561,0,0,1,0-7.125,11.088,11.088,0,0,1,21,7.125h9.374l2.532-7.5-2.532-2.531h2.532V22.531ZM31.875,7.344,27.094,6.5,37.969,2.469h.375Zm83.906,25.125h-4.593V31.344a13.594,13.594,0,0,0-27.188,0v1.125H38.063V31.344a13.594,13.594,0,0,0-27.187,0v1.125h-.469L4.313,30.406,2.531,26.844V21.875L12.75,19.344l-.562-4.312H6l-.937-.937,2.906-1.5,29.437,2.438H87.281l21,4.219,9,9Z"/><path class="a" d="M103.688,37.438a8.552,8.552,0,1,0-12.094,0H30.469A8.744,8.744,0,0,0,33,31.344a8.523,8.523,0,0,0-8.625-8.531,8.916,8.916,0,0,0-6.094,2.531,8.572,8.572,0,0,0,0,12.094H2.531v2.531h112.5V37.438Zm-79.313,0a6.094,6.094,0,1,1,6.094-6.094A6.082,6.082,0,0,1,24.375,37.438Zm73.219,0a6.094,6.094,0,1,1,6.094-6.094A6.082,6.082,0,0,1,97.594,37.438Z"/></g></svg>