<svg xmlns="http://www.w3.org/2000/svg" width="120" height="43.969" viewBox="0 0 120 43.969"><defs><style>.a{fill:#404041;}</style></defs><g transform="translate(0 -37.969)"><path class="a" d="M29.438,74.813A2.968,2.968,0,0,1,26.25,72H23.906a5.4,5.4,0,0,0,5.156,5.156A5.343,5.343,0,0,0,34.594,72H32.25a3.025,3.025,0,0,1-2.812,2.813Z"/><path class="a" d="M120,59.156h-4.688l-2.343-2.344,2.343-2.344-7.124-2.437H61.125V42.656H58.781v9.375H51.75l-4.687-2.344V40.313H72.938L84.75,49.688h4.688L75.281,40.313V37.969H40.031l-2.344,2.344-2.344,7.031,2.344,2.344H2.344L0,52.125H4.688L2.344,54.469H0v9.375l4.688,7.031H7.031L4.688,73.313l2.344,2.344H17.438a11.861,11.861,0,0,1,0-7.219,12.4,12.4,0,0,1,23.719,7.219h46.5a11.861,11.861,0,0,1,0-7.219,12.4,12.4,0,0,1,23.719,7.219h1.594L120,73.313V68.625l-2.344-2.344L120,63.938Zm-2.344,3.75-3.281,3.281,3.281,3.281v2.063l-3.468,1.125v-.75a14.724,14.724,0,0,0-29.438,0c0,.469.094.844.094,1.313H43.969a6.194,6.194,0,0,0,.094-1.313,14.724,14.724,0,0,0-29.437,0c0,.469.094.844.094,1.313H8.25l4.688-4.688H6L2.438,63.094V56.719h.938l4.688-4.687h35.25L37.97,46.688l1.687-5.156,1.219-1.312h3.75V51.094L51.1,54.375h56.718L111,55.406l-1.312,1.313,4.687,4.688h3.281Z"/><path class="a" d="M109.5,71.906A10.04,10.04,0,1,0,93,79.594H35.719a7.49,7.49,0,0,0,1.219-1.219,10.047,10.047,0,1,0-14.156,1.219H7.031v2.344H112.875v-2.25h-6.937A10.327,10.327,0,0,0,109.5,71.906ZM29.25,79.688a7.693,7.693,0,0,1,0-15.375,7.693,7.693,0,0,1,0,15.375Zm70.219,0a7.8,7.8,0,0,1-7.5-7.969,7.678,7.678,0,0,1,7.406-7.406h.094a7.693,7.693,0,0,1,0,15.375Z"/><path class="a" d="M99.656,74.813A2.968,2.968,0,0,1,96.469,72H94.125a5.4,5.4,0,0,0,5.156,5.156A5.342,5.342,0,0,0,104.812,72h-2.343A3.025,3.025,0,0,1,99.656,74.813Z"/></g></svg>