<svg width="13" height="16" viewBox="0 0 13 16" fill="none" xmlns="http://www.w3.org/2000/svg">
<path fill-rule="evenodd" clip-rule="evenodd" d="M6.38185 8.14748C6.79169 7.57227 6.74595 6.96647 6.46177 5.87676C5.89974 3.72162 6.12354 2.54037 8.06105 1.14187L9.00671 0.45929L9.23544 1.60292C9.47851 2.81831 9.8777 3.57003 10.9027 5.01598C10.9434 5.07342 10.9434 5.07342 10.9843 5.13111C12.4607 7.21406 13 8.46972 13 10.75C13 13.5163 10.2035 16 7 16C3.79631 16 1 13.5166 1 10.75C1 10.6983 1.00005 10.6999 0.991291 10.4713C0.923524 8.70386 1.25036 7.32053 2.5728 5.8269C2.85221 5.51132 3.16981 5.20801 3.52722 4.91778L4.31621 4.2771L4.69575 5.21993C4.97618 5.9166 5.30477 6.46425 5.67596 6.86613C5.99034 7.20652 6.22356 7.63455 6.38185 8.14748ZM3.69586 6.82124C2.67784 7.97105 2.4358 8.99545 2.49019 10.4139C2.50031 10.6779 2.5 10.6686 2.5 10.75C2.5 12.6459 4.5877 14.5 7 14.5C9.4121 14.5 11.5 12.6456 11.5 10.75C11.5 8.84365 11.0738 7.85127 9.76055 5.99852C9.71986 5.94113 9.71986 5.94113 9.67895 5.88344C8.88141 4.75833 8.40601 3.97569 8.0915 3.10039C7.57786 3.71588 7.60806 4.32804 7.91323 5.49824C8.47525 7.65338 8.25146 8.83463 6.31395 10.2331L5.2092 11.0305L5.12638 9.67059C5.07347 8.80168 4.8768 8.21166 4.57404 7.88387C4.27492 7.56001 4.00485 7.18086 3.76266 6.74709C3.74007 6.77174 3.7178 6.79646 3.69586 6.82124Z" fill="white"/>
</svg>
