<svg width="18" height="19" viewBox="0 0 18 19" fill="none" xmlns="http://www.w3.org/2000/svg">
<path fill-rule="evenodd" clip-rule="evenodd" d="M12.2865 5.75L13.6683 8.51356L15.75 9.90139V12.5H14.872C14.5631 11.6261 13.7297 11 12.75 11C11.7703 11 10.9369 11.6261 10.628 12.5H7.37197C7.06309 11.6261 6.22966 11 5.25 11C4.27034 11 3.43691 11.6261 3.12803 12.5H2.25V5.75H12.2865ZM15.75 14H14.872C14.5631 14.8739 13.7297 15.5 12.75 15.5C11.7703 15.5 10.9369 14.8739 10.628 14H7.37197C7.06309 14.8739 6.22966 15.5 5.25 15.5C4.27034 15.5 3.43691 14.8739 3.12803 14H2.25C1.42157 14 0.75 13.3284 0.75 12.5V5.75C0.75 4.92157 1.42157 4.25 2.25 4.25H12.2865C12.8546 4.25 13.374 4.571 13.6281 5.07918L14.8317 7.48644L17.25 9.09861V12.5C17.25 13.3284 16.5784 14 15.75 14ZM6 13.25C6 13.6642 5.66421 14 5.25 14C4.83579 14 4.5 13.6642 4.5 13.25C4.5 12.8358 4.83579 12.5 5.25 12.5C5.66421 12.5 6 12.8358 6 13.25ZM13.5 13.25C13.5 13.6642 13.1642 14 12.75 14C12.3358 14 12 13.6642 12 13.25C12 12.8358 12.3358 12.5 12.75 12.5C13.1642 12.5 13.5 12.8358 13.5 13.25Z" fill="white"/>
</svg>
