<svg width="40" height="40" viewBox="0 0 40 40" fill="none" xmlns="http://www.w3.org/2000/svg">
<mask id="mask0" mask-type="alpha" maskUnits="userSpaceOnUse" x="0" y="0" width="40" height="40">
<path fill-rule="evenodd" clip-rule="evenodd" d="M0 20C0 8.95431 8.95431 0 20 0C31.0457 0 40 8.95431 40 20C40 31.0457 31.0457 40 20 40C8.95431 40 0 31.0457 0 20Z" fill="white"/>
</mask>
<g mask="url(#mask0)">
<path fill-rule="evenodd" clip-rule="evenodd" d="M0 20C0 8.95431 8.95431 0 20 0C31.0457 0 40 8.95431 40 20C40 31.0457 31.0457 40 20 40C8.95431 40 0 31.0457 0 20Z" fill="white"/>
<path fill-rule="evenodd" clip-rule="evenodd" d="M20.0012 9.33331C17.1042 9.33331 16.7407 9.34598 15.6029 9.39776C14.4673 9.44976 13.6922 9.62954 13.014 9.89332C12.3124 10.1658 11.7173 10.5302 11.1244 11.1233C10.5311 11.7162 10.1666 12.3113 9.89328 13.0127C9.62883 13.6911 9.44883 14.4665 9.39772 15.6016C9.34683 16.7394 9.3335 17.1032 9.3335 20.0001C9.3335 22.897 9.34639 23.2595 9.39794 24.3972C9.45016 25.5328 9.62994 26.3079 9.8935 26.9862C10.1662 27.6877 10.5306 28.2828 11.1237 28.8757C11.7164 29.4691 12.3115 29.8344 13.0126 30.1069C13.6913 30.3706 14.4667 30.5504 15.602 30.6024C16.7398 30.6542 17.1031 30.6669 19.9998 30.6669C22.897 30.6669 23.2594 30.6542 24.3972 30.6024C25.5328 30.5504 26.3088 30.3706 26.9875 30.1069C27.6888 29.8344 28.283 29.4691 28.8757 28.8757C29.469 28.2828 29.8335 27.6877 30.1068 26.9864C30.369 26.3079 30.5491 25.5326 30.6024 24.3975C30.6535 23.2597 30.6668 22.897 30.6668 20.0001C30.6668 17.1032 30.6535 16.7396 30.6024 15.6018C30.5491 14.4663 30.369 13.6911 30.1068 13.0129C29.8335 12.3113 29.469 11.7162 28.8757 11.1233C28.2824 10.53 27.689 10.1655 26.9868 9.89332C26.3068 9.62954 25.5312 9.44976 24.3957 9.39776C23.2579 9.34598 22.8956 9.33331 19.9978 9.33331H20.0012ZM19.0442 11.2557C19.3282 11.2552 19.6451 11.2557 20.0011 11.2557C22.8491 11.2557 23.1867 11.2659 24.3114 11.317C25.3514 11.3645 25.9158 11.5383 26.2918 11.6843C26.7896 11.8777 27.1445 12.1088 27.5176 12.4821C27.8909 12.8555 28.1221 13.211 28.3158 13.7088C28.4618 14.0844 28.6358 14.6488 28.6832 15.6888C28.7343 16.8133 28.7454 17.1511 28.7454 19.9977C28.7454 22.8444 28.7343 23.1822 28.6832 24.3067C28.6356 25.3467 28.4618 25.9111 28.3158 26.2867C28.1225 26.7845 27.8909 27.1389 27.5176 27.5121C27.1443 27.8854 26.7898 28.1165 26.2918 28.3098C25.9163 28.4565 25.3514 28.6298 24.3114 28.6774C23.1869 28.7285 22.8491 28.7396 20.0011 28.7396C17.1528 28.7396 16.8153 28.7285 15.6908 28.6774C14.6508 28.6294 14.0864 28.4556 13.7101 28.3096C13.2123 28.1163 12.8568 27.8852 12.4835 27.5118C12.1101 27.1385 11.879 26.7838 11.6852 26.2858C11.5392 25.9103 11.3652 25.3458 11.3179 24.3058C11.2668 23.1813 11.2566 22.8436 11.2566 19.9951C11.2566 17.1466 11.2668 16.8106 11.3179 15.6861C11.3654 14.6461 11.5392 14.0817 11.6852 13.7057C11.8786 13.2079 12.1101 12.8523 12.4835 12.479C12.8568 12.1057 13.2123 11.8746 13.7101 11.6808C14.0861 11.5341 14.6508 11.3608 15.6908 11.313C16.6748 11.2685 17.0562 11.2552 19.0442 11.253V11.2557ZM25.6949 13.0267C24.9883 13.0267 24.4149 13.5994 24.4149 14.3063C24.4149 15.013 24.9883 15.5863 25.6949 15.5863C26.4016 15.5863 26.9749 15.013 26.9749 14.3063C26.9749 13.5996 26.4016 13.0263 25.6949 13.0263V13.0267ZM20.0012 14.5224C16.976 14.5224 14.5233 16.9751 14.5233 20.0002C14.5233 23.0253 16.976 25.4769 20.0012 25.4769C23.0263 25.4769 25.4781 23.0253 25.4781 20.0002C25.4781 16.9751 23.0261 14.5224 20.0009 14.5224H20.0012ZM20.0011 16.4446C21.9647 16.4446 23.5567 18.0364 23.5567 20.0002C23.5567 21.9637 21.9647 23.5557 20.0011 23.5557C18.0373 23.5557 16.4455 21.9637 16.4455 20.0002C16.4455 18.0364 18.0373 16.4446 20.0011 16.4446Z" fill="black"/>
</g>
</svg>
