<svg width="40" height="40" viewBox="0 0 40 40" fill="none" xmlns="http://www.w3.org/2000/svg">
<path fill-rule="evenodd" clip-rule="evenodd" d="M0 20C0 8.95431 8.95431 0 20 0C31.0457 0 40 8.95431 40 20C40 31.0457 31.0457 40 20 40C8.95431 40 0 31.0457 0 20Z" fill="#00B900"/>
<path fill-rule="evenodd" clip-rule="evenodd" d="M20.3332 9.33325C13.5332 9.33325 8 13.7907 8 19.2697C8 24.1816 12.3877 28.2952 18.3146 29.0731C18.7163 29.159 19.2629 29.336 19.4012 29.6768C19.5256 29.9864 19.4825 30.4713 19.4409 30.784C19.4409 30.784 19.2962 31.648 19.265 31.832C19.2113 32.1417 19.0172 33.0428 20.3332 32.4921C21.6497 31.9414 27.4361 28.34 30.0236 25.3832C31.8105 23.4373 32.6667 21.4625 32.6667 19.2697C32.6667 13.7907 27.1342 9.33325 20.3332 9.33325Z" fill="white"/>
<path fill-rule="evenodd" clip-rule="evenodd" d="M16.9047 16.6667C16.7733 16.6667 16.6665 16.777 16.6665 16.9125V22.421C16.6665 22.5567 16.7733 22.6667 16.9047 22.6667H17.7618C17.8933 22.6667 17.9998 22.5567 17.9998 22.421V16.9125C17.9998 16.777 17.8933 16.6667 17.7618 16.6667H16.9047Z" fill="#00B900"/>
<path fill-rule="evenodd" clip-rule="evenodd" d="M23.7493 16.6667H22.847C22.7087 16.6667 22.5965 16.777 22.5965 16.9125V20.1851L20.0279 16.776C20.022 16.7673 20.0154 16.7591 20.0085 16.7511L20.0067 16.7496C20.0018 16.7441 19.9969 16.7392 19.9917 16.7344C19.9902 16.7329 19.9887 16.7317 19.987 16.7302C19.9828 16.7264 19.9784 16.7227 19.9737 16.7193C19.9717 16.7174 19.9695 16.7159 19.9673 16.7142C19.9628 16.7113 19.9587 16.7082 19.9542 16.7055C19.9518 16.7038 19.9493 16.7024 19.9466 16.7012C19.9421 16.6985 19.9377 16.6958 19.9333 16.6936C19.9305 16.6924 19.9281 16.691 19.9254 16.69C19.9207 16.6878 19.916 16.6857 19.9111 16.684C19.9081 16.683 19.9056 16.682 19.9029 16.681C19.898 16.6794 19.8931 16.6777 19.8879 16.6764C19.8852 16.6755 19.8822 16.675 19.8793 16.674C19.8743 16.673 19.8696 16.6718 19.865 16.6709C19.8615 16.6704 19.8578 16.6699 19.8543 16.6697C19.8499 16.6687 19.8455 16.6684 19.841 16.668C19.8368 16.6675 19.8326 16.6675 19.8282 16.6672C19.825 16.6672 19.8225 16.6667 19.8193 16.6667H18.9173C18.779 16.6667 18.6665 16.777 18.6665 16.9125V22.421C18.6665 22.5567 18.779 22.6667 18.9173 22.6667H19.8193C19.9579 22.6667 20.0701 22.5567 20.0701 22.421V19.1493L22.6418 22.5628C22.6596 22.5875 22.6815 22.6076 22.7055 22.6236C22.7062 22.6241 22.7072 22.6248 22.7079 22.6255C22.7131 22.6287 22.7183 22.6319 22.7235 22.6348C22.7259 22.6362 22.7282 22.6372 22.7306 22.6384C22.7343 22.6406 22.7385 22.6425 22.7425 22.6442C22.7466 22.6459 22.7503 22.6476 22.7548 22.6493C22.7573 22.6503 22.7597 22.6512 22.7622 22.652C22.7681 22.6541 22.7735 22.6558 22.7792 22.6575C22.7804 22.6575 22.7817 22.658 22.7829 22.6583C22.8034 22.6636 22.8248 22.6667 22.847 22.6667H23.7493C23.8879 22.6667 23.9998 22.5567 23.9998 22.421V16.9125C23.9998 16.777 23.8879 16.6667 23.7493 16.6667Z" fill="#00B900"/>
<path fill-rule="evenodd" clip-rule="evenodd" d="M15.7564 21.2874H13.3675V16.913C13.3675 16.777 13.2581 16.6667 13.1236 16.6667H12.2441C12.1093 16.6667 12 16.777 12 16.913V22.4203V22.4208C12 22.4869 12.0262 22.5468 12.0682 22.5909C12.0692 22.5921 12.0702 22.5933 12.0716 22.5945C12.0728 22.5957 12.074 22.5967 12.0752 22.5979C12.1192 22.6406 12.1783 22.6667 12.2439 22.6667H15.7564C15.8912 22.6667 16 22.5562 16 22.4203V21.5336C16 21.3976 15.8912 21.2874 15.7564 21.2874Z" fill="#00B900"/>
<path fill-rule="evenodd" clip-rule="evenodd" d="M28.4229 18.0461C28.5577 18.0461 28.6665 17.9361 28.6665 17.7999V16.9132C28.6665 16.7773 28.5577 16.6667 28.4229 16.6667H24.9106H24.9102C24.8443 16.6667 24.785 16.6934 24.741 16.7363C24.74 16.7373 24.7388 16.738 24.7381 16.739C24.7367 16.7404 24.7355 16.7419 24.7343 16.7433C24.6925 16.7874 24.6665 16.847 24.6665 16.913V16.9132V22.4205V22.4208C24.6665 22.4869 24.6927 22.5468 24.7347 22.5909C24.7357 22.5921 24.7369 22.5936 24.7381 22.5945C24.7391 22.5957 24.7405 22.597 24.7417 22.5979C24.7854 22.6403 24.8448 22.6667 24.9102 22.6667H28.4229C28.5577 22.6667 28.6665 22.5562 28.6665 22.4205V21.5336C28.6665 21.3979 28.5577 21.2874 28.4229 21.2874H26.0342V20.3563H28.4229C28.5577 20.3563 28.6665 20.2461 28.6665 20.1101V19.2234C28.6665 19.0874 28.5577 18.9769 28.4229 18.9769H26.0342V18.0461H28.4229Z" fill="#00B900"/>
</svg>
