<svg width="40" height="40" viewBox="0 0 40 40" fill="none" xmlns="http://www.w3.org/2000/svg">
<path fill-rule="evenodd" clip-rule="evenodd" d="M19.9833 40C8.94497 40 0 31.0438 0 19.9989C0 8.95411 8.94497 0 19.9833 0C31.0195 0 39.9666 8.95411 39.9666 19.9989C39.9666 31.0438 31.0195 40 19.9833 40Z" fill="white"/>
<path fill-rule="evenodd" clip-rule="evenodd" d="M19.9595 1.87451C9.95718 1.87451 1.84912 9.98676 1.84912 19.9991C1.84912 27.6765 6.62234 34.2357 13.3584 36.8769C13.2 35.4438 13.0587 33.2439 13.4226 31.6758C13.7501 30.262 15.5459 22.6682 15.5459 22.6682C15.5459 22.6682 15.0044 21.5821 15.0044 19.9777C15.0044 17.4564 16.462 15.5756 18.2814 15.5756C19.8247 15.5756 20.5717 16.7366 20.5717 18.129C20.5717 19.6842 19.5828 22.0084 19.0712 24.1634C18.6453 25.9692 19.9767 27.4387 21.7532 27.4387C24.9725 27.4387 27.4469 24.0413 27.4469 19.1379C27.4469 14.798 24.3325 11.7647 19.8825 11.7647C14.7304 11.7647 11.7059 15.6334 11.7059 19.6306C11.7059 21.188 12.3031 22.8588 13.0523 23.7671C13.2 23.947 13.2214 24.1034 13.1786 24.2876C13.0416 24.8596 12.7355 26.0913 12.6756 26.3419C12.5964 26.674 12.4123 26.7446 12.0677 26.5861C9.80734 25.5322 8.39464 22.2205 8.39464 19.5642C8.39464 13.8469 12.545 8.59437 20.3598 8.59437C26.642 8.59437 31.5244 13.0757 31.5244 19.063C31.5244 25.3094 27.5881 30.337 22.1278 30.337C20.2913 30.337 18.5661 29.3816 17.9753 28.2548C17.9753 28.2548 17.0678 31.7144 16.8473 32.5627C16.4385 34.1371 15.334 36.11 14.5977 37.3139C16.2908 37.8409 18.0909 38.1236 19.9595 38.1236C29.9619 38.1236 38.07 30.0093 38.07 19.9991C38.07 9.98676 29.9619 1.87451 19.9595 1.87451Z" fill="#BD081C"/>
</svg>
