<svg width="40" height="40" viewBox="0 0 40 40" fill="none" xmlns="http://www.w3.org/2000/svg">
<path fill-rule="evenodd" clip-rule="evenodd" d="M0 20C0 8.95431 8.95431 0 20 0C31.0457 0 40 8.95431 40 20C40 31.0457 31.0457 40 20 40C8.95431 40 0 31.0457 0 20Z" fill="#FF0000"/>
<path fill-rule="evenodd" clip-rule="evenodd" d="M30.221 15.0611C29.9757 14.1186 29.2528 13.3764 28.3348 13.1245C26.6713 12.6667 20.0002 12.6667 20.0002 12.6667C20.0002 12.6667 13.329 12.6667 11.6654 13.1245C10.7474 13.3764 10.0245 14.1186 9.77919 15.0611C9.3335 16.7693 9.3335 20.3334 9.3335 20.3334C9.3335 20.3334 9.3335 23.8974 9.77919 25.6057C10.0245 26.5482 10.7474 27.2904 11.6654 27.5424C13.329 28.0001 20.0002 28.0001 20.0002 28.0001C20.0002 28.0001 26.6713 28.0001 28.3348 27.5424C29.2528 27.2904 29.9757 26.5482 30.221 25.6057C30.6668 23.8974 30.6668 20.3334 30.6668 20.3334C30.6668 20.3334 30.6668 16.7693 30.221 15.0611Z" fill="white"/>
<path fill-rule="evenodd" clip-rule="evenodd" d="M18 23.9999V17.3333L23.3333 20.6667L18 23.9999Z" fill="#FF0000"/>
</svg>
